<svg width="280" height="35" viewBox="0 0 280 35" fill="none" xmlns="http://www.w3.org/2000/svg">
<path d="M9.175 19.8906V32.125L14.4016 32.7578V34H0.925003V32.7578L4.65157 32.125V4.42188L0.620316 3.8125V2.57031H24.1984V10.0938H22.6516L21.9016 5.00781C20.1516 4.78906 17.6203 4.67969 14.3078 4.67969H9.175V17.7812H18.4328L19.1594 14.0312H20.5891V23.6875H19.1594L18.4328 19.8906H9.175ZM34.5578 32.3594L38.3313 32.9453V34H26.9172V32.9453L30.6672 32.3594V2.3125L26.9172 1.75V0.695312H34.5578V32.3594ZM50.2141 11.4766C52.6203 11.4766 54.3859 11.9688 55.5109 12.9531C56.6516 13.9375 57.2219 15.4453 57.2219 17.4766V32.3594L59.9641 32.9453V34H53.9172L53.4719 31.7969C51.6906 33.5781 49.4172 34.4688 46.6516 34.4688C42.8859 34.4688 41.0031 32.2812 41.0031 27.9062C41.0031 26.4375 41.2844 25.2266 41.8469 24.2734C42.425 23.3047 43.3391 22.5703 44.5891 22.0703C45.8391 21.5547 47.6516 21.2734 50.0266 21.2266L53.3313 21.1328V17.6875C53.3313 16.1719 53.05 15.0547 52.4875 14.3359C51.9406 13.6172 51.0891 13.2578 49.9328 13.2578C48.3703 13.2578 46.9406 13.625 45.6438 14.3594L44.8469 17.1016H43.5344V12.2969C46.0656 11.75 48.2922 11.4766 50.2141 11.4766ZM53.3313 22.7734L50.2609 22.8672C48.1672 22.9453 46.7453 23.3516 45.9953 24.0859C45.2609 24.8203 44.8938 26.0469 44.8938 27.7656C44.8938 30.5156 46.0109 31.8906 48.2453 31.8906C49.3078 31.8906 50.2219 31.7734 50.9875 31.5391C51.7688 31.2891 52.55 30.9766 53.3313 30.6016V22.7734ZM73.6984 34.4688H71.9641L62.8938 13.6094L60.6438 13.0234V11.9688H70.9094V13.0234L67.4172 13.6562L73.8391 28.8672L79.9797 13.6094L76.4875 13.0234V11.9688H84.6438V13.0234L82.5344 13.5156L73.6984 34.4688ZM93.5266 4.77344C93.5266 5.46094 93.2766 6.05469 92.7766 6.55469C92.2766 7.05469 91.675 7.30469 90.9719 7.30469C90.2844 7.30469 89.6906 7.05469 89.1906 6.55469C88.6906 6.05469 88.4406 5.46094 88.4406 4.77344C88.4406 4.07031 88.6906 3.46875 89.1906 2.96875C89.6906 2.46875 90.2844 2.21875 90.9719 2.21875C91.675 2.21875 92.2766 2.46875 92.7766 2.96875C93.2766 3.46875 93.5266 4.07031 93.5266 4.77344ZM93.2922 32.3594L97.0656 32.9453V34H85.6516V32.9453L89.4016 32.3594V13.6094L86.2844 13.0234V11.9688H93.2922V32.3594ZM104.097 22.9141V23.3359C104.097 25.4922 104.331 27.1719 104.8 28.375C105.284 29.5625 106.019 30.4688 107.003 31.0938C108.003 31.7188 109.308 32.0312 110.917 32.0312C111.761 32.0312 112.761 31.9609 113.917 31.8203C115.073 31.6797 116.027 31.5234 116.777 31.3516V32.6641C116.027 33.1484 115.003 33.5703 113.706 33.9297C112.425 34.2891 111.113 34.4688 109.769 34.4688C106.347 34.4688 103.839 33.5469 102.245 31.7031C100.667 29.8594 99.8781 26.8984 99.8781 22.8203C99.8781 18.9766 100.683 16.1094 102.292 14.2188C103.902 12.3281 106.198 11.3828 109.183 11.3828C114.823 11.3828 117.644 14.5859 117.644 20.9922V22.9141H104.097ZM109.183 13.2578C107.558 13.2578 106.308 13.9141 105.433 15.2266C104.573 16.5391 104.144 18.4766 104.144 21.0391H113.566C113.566 18.2422 113.206 16.25 112.488 15.0625C111.769 13.8594 110.667 13.2578 109.183 13.2578ZM126.925 13.75C128.128 13.0625 129.409 12.5 130.769 12.0625C132.128 11.6094 133.261 11.3828 134.167 11.3828C136.073 11.3828 137.511 11.9375 138.48 13.0469C139.448 14.1562 139.933 15.7656 139.933 17.875V32.3594L142.605 32.9453V34H133.113V32.9453L136.042 32.3594V18.2969C136.042 17 135.722 15.9844 135.081 15.25C134.456 14.5 133.48 14.125 132.152 14.125C130.745 14.125 129.019 14.3516 126.972 14.8047V32.3594L129.948 32.9453V34H120.433V32.9453L123.081 32.3594V13.6094L120.433 13.0234V11.9688H126.714L126.925 13.75ZM160.708 16.3281C163.739 16.3281 165.895 15.8203 167.177 14.8047C168.473 13.7891 169.122 12.0078 169.122 9.46094C169.122 7.83594 168.614 6.63281 167.598 5.85156C166.583 5.07031 164.911 4.67969 162.583 4.67969H158.88L156.817 16.3281H160.708ZM160.145 32.0312C163.145 32.0312 165.348 31.4531 166.755 30.2969C168.161 29.125 168.864 27.1875 168.864 24.4844C168.864 22.3594 168.169 20.8203 166.778 19.8672C165.403 18.9141 163.411 18.4375 160.802 18.4375H156.442L154.098 31.8906C156.489 31.9844 158.505 32.0312 160.145 32.0312ZM146.177 34L146.411 32.7578L149.528 32.125L154.427 4.42188L150.489 3.8125L150.723 2.57031H163.637C170.544 2.57031 173.997 4.77344 173.997 9.17969C173.997 11.3828 173.302 13.2031 171.911 14.6406C170.536 16.0781 168.614 16.9609 166.145 17.2891C168.567 17.4922 170.442 18.2188 171.77 19.4688C173.098 20.7031 173.762 22.3438 173.762 24.3906C173.762 27.75 172.622 30.2188 170.341 31.7969C168.075 33.3594 164.677 34.1406 160.145 34.1406L151.169 34H146.177ZM180.63 26.0312C180.63 28.1406 181.036 29.7578 181.848 30.8828C182.677 31.9922 183.825 32.5469 185.294 32.5469C186.716 32.5469 188.067 31.9766 189.348 30.8359C190.645 29.6953 191.669 28.1406 192.419 26.1719C193.169 24.1875 193.544 22.0625 193.544 19.7969C193.544 17.6406 193.13 16.0078 192.302 14.8984C191.489 13.7734 190.317 13.2109 188.786 13.2109C187.364 13.2109 186.012 13.7812 184.731 14.9219C183.466 16.0625 182.466 17.625 181.731 19.6094C180.997 21.5781 180.63 23.7188 180.63 26.0312ZM185.083 34.4688C182.489 34.4688 180.411 33.6406 178.848 31.9844C177.286 30.3125 176.505 28.0625 176.505 25.2344C176.505 22.7188 177.044 20.3906 178.122 18.25C179.2 16.1094 180.692 14.4297 182.598 13.2109C184.52 11.9922 186.677 11.3828 189.067 11.3828C191.661 11.3828 193.739 12.2188 195.302 13.8906C196.864 15.5469 197.645 17.7891 197.645 20.6172C197.645 23.1328 197.106 25.4609 196.028 27.6016C194.95 29.7422 193.45 31.4219 191.528 32.6406C189.622 33.8594 187.473 34.4688 185.083 34.4688ZM216.77 16.4688C216.77 15.7656 216.583 15.1953 216.208 14.7578C215.833 14.3203 215.239 14.1016 214.427 14.1016C213.27 14.1016 212.005 14.5938 210.63 15.5781C209.27 16.5625 208.145 17.7812 207.255 19.2344L204.677 34H200.786L204.372 13.5859L201.606 13L201.794 11.9453H208.309L207.677 16.4453C208.989 14.7578 210.348 13.4922 211.755 12.6484C213.161 11.8047 214.544 11.3828 215.903 11.3828C217.481 11.3828 218.669 11.8125 219.466 12.6719C220.262 13.5156 220.661 14.7344 220.661 16.3281C220.661 16.5469 220.63 16.8828 220.567 17.3359C220.505 17.7891 219.653 22.8047 218.012 32.3828L221.083 32.9453L220.895 34H213.841L216.231 20.3594C216.591 18.375 216.77 17.0781 216.77 16.4688ZM240.677 15.0859C240.677 14.5078 240.512 14.0469 240.184 13.7031C239.856 13.3594 239.505 13.1328 239.13 13.0234L239.317 11.9688H243.77C244.177 12.3281 244.38 12.8203 244.38 13.4453C244.38 14.8203 243.731 16.5391 242.434 18.6016L232.52 34.4688H230.809L226.38 13.6094L223.731 13.0234L223.942 11.9688H229.942L233.341 29.125L239.177 19.6094C240.177 17.9844 240.677 16.4766 240.677 15.0859ZM251.247 32.3594L254.927 32.9453L254.739 34H247.075L250.661 13.6094L247.637 13.0234L247.825 11.9688H254.833L251.247 32.3594ZM256.286 4.77344C256.286 5.46094 256.036 6.05469 255.536 6.55469C255.036 7.05469 254.434 7.30469 253.731 7.30469C253.044 7.30469 252.45 7.05469 251.95 6.55469C251.45 6.05469 251.2 5.46094 251.2 4.77344C251.2 4.07031 251.45 3.46875 251.95 2.96875C252.45 2.46875 253.044 2.21875 253.731 2.21875C254.434 2.21875 255.036 2.46875 255.536 2.96875C256.036 3.46875 256.286 4.07031 256.286 4.77344ZM275.458 16.4688C275.458 15.7656 275.27 15.1953 274.895 14.7578C274.52 14.3203 273.927 14.1016 273.114 14.1016C271.958 14.1016 270.692 14.5938 269.317 15.5781C267.958 16.5625 266.833 17.7812 265.942 19.2344L263.364 34H259.473L263.059 13.5859L260.294 13L260.481 11.9453H266.997L266.364 16.4453C267.677 14.7578 269.036 13.4922 270.442 12.6484C271.848 11.8047 273.231 11.3828 274.591 11.3828C276.169 11.3828 277.356 11.8125 278.153 12.6719C278.95 13.5156 279.348 14.7344 279.348 16.3281C279.348 16.5469 279.317 16.8828 279.255 17.3359C279.192 17.7891 278.341 22.8047 276.7 32.3828L279.77 32.9453L279.583 34H272.528L274.919 20.3594C275.278 18.375 275.458 17.0781 275.458 16.4688Z" fill="#303030"/>
</svg>
