<svg width="250" height="50" viewBox="0 0 250 50" fill="none" xmlns="http://www.w3.org/2000/svg">
<path d="M12.5273 28.4238V46.2656L20.1494 47.1885V49H0.496094V47.1885L5.93066 46.2656V5.86523L0.0517578 4.97656V3.16504H34.4365V14.1367H32.1807L31.0869 6.71973C28.5348 6.40072 24.8434 6.24121 20.0127 6.24121H12.5273V25.3477H26.0283L27.0879 19.8789H29.1729V33.9609H27.0879L26.0283 28.4238H12.5273ZM49.5439 46.6074L55.0469 47.4619V49H38.4014V47.4619L43.8701 46.6074V2.78906L38.4014 1.96875V0.430664H49.5439V46.6074ZM72.376 16.1533C75.8851 16.1533 78.46 16.8711 80.1006 18.3066C81.764 19.7422 82.5957 21.9411 82.5957 24.9033V46.6074L86.5947 47.4619V49H77.7764L77.127 45.7871C74.5293 48.3848 71.2139 49.6836 67.1807 49.6836C61.6891 49.6836 58.9434 46.4935 58.9434 40.1133C58.9434 37.9714 59.3535 36.2054 60.1738 34.8154C61.0169 33.4027 62.3499 32.3317 64.1729 31.6025C65.9958 30.8506 68.639 30.4404 72.1025 30.3721L76.9219 30.2354V25.2109C76.9219 23.0007 76.5117 21.3714 75.6914 20.3232C74.8939 19.2751 73.652 18.751 71.9658 18.751C69.6872 18.751 67.6022 19.2865 65.7109 20.3574L64.5488 24.3564H62.6348V17.3496C66.3262 16.5521 69.5732 16.1533 72.376 16.1533ZM76.9219 32.6279L72.4443 32.7646C69.391 32.8786 67.3174 33.471 66.2236 34.542C65.1527 35.613 64.6172 37.4017 64.6172 39.9082C64.6172 43.9186 66.2464 45.9238 69.5049 45.9238C71.0544 45.9238 72.3874 45.7529 73.5039 45.4111C74.6432 45.0465 75.7826 44.5908 76.9219 44.0439V32.6279ZM106.624 49.6836H104.095L90.8672 19.2637L87.5859 18.4092V16.8711H102.557V18.4092L97.4639 19.332L106.829 41.5146L115.784 19.2637L110.691 18.4092V16.8711H122.586V18.4092L119.51 19.127L106.624 49.6836ZM135.54 6.37793C135.54 7.38053 135.175 8.24642 134.446 8.97559C133.717 9.70475 132.84 10.0693 131.814 10.0693C130.812 10.0693 129.946 9.70475 129.217 8.97559C128.488 8.24642 128.123 7.38053 128.123 6.37793C128.123 5.35254 128.488 4.47526 129.217 3.74609C129.946 3.01693 130.812 2.65234 131.814 2.65234C132.84 2.65234 133.717 3.01693 134.446 3.74609C135.175 4.47526 135.54 5.35254 135.54 6.37793ZM135.198 46.6074L140.701 47.4619V49H124.056V47.4619L129.524 46.6074V19.2637L124.979 18.4092V16.8711H135.198V46.6074ZM150.955 32.833V33.4482C150.955 36.5928 151.297 39.0423 151.98 40.7969C152.687 42.5286 153.758 43.8503 155.193 44.7617C156.652 45.6732 158.554 46.1289 160.901 46.1289C162.132 46.1289 163.59 46.0264 165.276 45.8213C166.963 45.6162 168.353 45.3883 169.446 45.1377V47.0518C168.353 47.7581 166.86 48.3734 164.969 48.8975C163.1 49.4215 161.186 49.6836 159.227 49.6836C154.236 49.6836 150.579 48.3392 148.255 45.6504C145.953 42.9616 144.803 38.6436 144.803 32.6963C144.803 27.0908 145.976 22.9095 148.323 20.1523C150.67 17.3952 154.02 16.0166 158.372 16.0166C166.598 16.0166 170.711 20.6878 170.711 30.0303V32.833H150.955ZM158.372 18.751C156.002 18.751 154.179 19.708 152.903 21.6221C151.65 23.5361 151.023 26.3617 151.023 30.0986H164.764C164.764 26.0199 164.24 23.1146 163.191 21.3828C162.143 19.6283 160.537 18.751 158.372 18.751ZM184.246 19.4688C186.001 18.4661 187.869 17.6458 189.852 17.0078C191.834 16.347 193.486 16.0166 194.808 16.0166C197.588 16.0166 199.684 16.8255 201.097 18.4434C202.509 20.0612 203.216 22.4082 203.216 25.4844V46.6074L207.112 47.4619V49H193.27V47.4619L197.542 46.6074V26.0996C197.542 24.2083 197.075 22.7272 196.141 21.6562C195.229 20.5625 193.805 20.0156 191.868 20.0156C189.817 20.0156 187.299 20.346 184.314 21.0068V46.6074L188.655 47.4619V49H174.778V47.4619L178.641 46.6074V19.2637L174.778 18.4092V16.8711H183.938L184.246 19.4688ZM230.013 23.2285C234.433 23.2285 237.578 22.488 239.446 21.0068C241.338 19.5257 242.283 16.9281 242.283 13.2139C242.283 10.8441 241.543 9.08952 240.062 7.9502C238.58 6.81087 236.142 6.24121 232.747 6.24121H227.347L224.339 23.2285H230.013ZM229.192 46.1289C233.567 46.1289 236.78 45.2858 238.831 43.5996C240.882 41.8906 241.907 39.0651 241.907 35.123C241.907 32.0241 240.893 29.7796 238.865 28.3896C236.86 26.9997 233.955 26.3047 230.149 26.3047H223.792L220.374 45.9238C223.86 46.0605 226.8 46.1289 229.192 46.1289ZM208.821 49L209.163 47.1885L213.709 46.2656L220.853 5.86523L215.11 4.97656L215.452 3.16504H234.285C244.357 3.16504 249.393 6.37793 249.393 12.8037C249.393 16.0166 248.379 18.6712 246.351 20.7676C244.345 22.8639 241.543 24.1514 237.942 24.6299C241.474 24.9261 244.209 25.9857 246.146 27.8086C248.082 29.6087 249.051 32.0013 249.051 34.9863C249.051 39.8854 247.387 43.4857 244.061 45.7871C240.757 48.0658 235.8 49.2051 229.192 49.2051L216.102 49H208.821Z" fill="#303030"/>
</svg>
