<svg width="92" height="49" viewBox="0 0 92 49" fill="none" xmlns="http://www.w3.org/2000/svg">
<path d="M38.4033 12.6328H35.8398C35.3613 10.8327 34.3587 8.90723 32.832 6.85645C31.3281 4.80566 29.8812 3.67773 28.4912 3.47266C27.7848 3.38151 26.9417 3.31315 25.9619 3.26758C25.0049 3.22201 23.9111 3.19922 22.6807 3.19922H14.5459V22.6816H20.1172C21.8034 22.6816 23.1136 22.5107 24.0479 22.1689C24.9821 21.8044 25.7796 21.2575 26.4404 20.5283C26.8962 20.027 27.3063 19.2523 27.6709 18.2041C28.0583 17.1331 28.3089 15.9938 28.4229 14.7861H31.0205V33.8242H28.4229C28.3545 32.8216 28.1152 31.6823 27.7051 30.4062C27.3177 29.1302 26.8962 28.2074 26.4404 27.6377C25.7568 26.7946 24.891 26.2249 23.8428 25.9287C22.8174 25.6097 21.5755 25.4502 20.1172 25.4502H14.5459V42.1641C14.5459 42.916 14.694 43.5882 14.9902 44.1807C15.2865 44.7731 15.8105 45.2516 16.5625 45.6162C16.9043 45.7757 17.6449 45.9694 18.7842 46.1973C19.9235 46.4251 20.7894 46.5505 21.3818 46.5732V49H0.361328V46.5732C1.04492 46.5277 1.95638 46.4593 3.0957 46.3682C4.23503 46.2542 4.97559 46.1175 5.31738 45.958C6.00098 45.6618 6.49089 45.2288 6.78711 44.6592C7.10612 44.0667 7.26562 43.3604 7.26562 42.54V7.54004C7.26562 6.78809 7.1403 6.12728 6.88965 5.55762C6.639 4.96517 6.11491 4.48665 5.31738 4.12207C4.70215 3.82585 3.87044 3.5638 2.82227 3.33594C1.79688 3.10807 0.976562 2.97135 0.361328 2.92578V0.499023H38.4033V12.6328ZM78.0518 9.9668C78.0518 7.71094 77.334 6.05892 75.8984 5.01074C74.4857 3.96257 72.6172 3.43848 70.293 3.43848C69.8372 3.43848 69.3018 3.46126 68.6865 3.50684C68.0713 3.52962 67.5928 3.55241 67.251 3.5752L63.0127 21.8271H65.3027C69.222 21.8271 72.321 20.7448 74.5996 18.5801C76.901 16.3926 78.0518 13.5215 78.0518 9.9668ZM75.3857 32.9697C75.3857 30.3493 74.5426 28.3441 72.8564 26.9541C71.1702 25.5413 68.6751 24.835 65.3711 24.835C64.9154 24.835 64.3457 24.8577 63.6621 24.9033C63.0013 24.9261 62.5456 24.9489 62.2949 24.9717L58.125 43.0186C58.1478 43.8617 58.7744 44.5794 60.0049 45.1719C61.2354 45.7643 62.6025 46.0605 64.1064 46.0605C67.137 46.0605 69.7689 44.8415 72.002 42.4033C74.2578 39.9652 75.3857 36.8206 75.3857 32.9697ZM74.4629 0.499023C80.319 0.499023 84.6143 1.22819 87.3486 2.68652C90.1058 4.12207 91.4844 6.33236 91.4844 9.31738C91.4844 11.2998 91.04 13.043 90.1514 14.5469C89.2855 16.0508 88.1348 17.3154 86.6992 18.3408C85.2637 19.389 83.6003 20.2663 81.709 20.9727C79.8405 21.679 77.9036 22.2373 75.8984 22.6475L75.7617 23.2969C77.334 23.4564 78.929 23.7982 80.5469 24.3223C82.1875 24.8236 83.5889 25.473 84.751 26.2705C86.0042 27.1136 86.9954 28.139 87.7246 29.3467C88.4538 30.5544 88.8184 32.0241 88.8184 33.7559C88.8184 38.7461 86.722 42.54 82.5293 45.1377C78.3594 47.7126 72.1956 49 64.0381 49H37.5146L38.0957 46.5049C38.6654 46.4821 39.5085 46.4023 40.625 46.2656C41.7643 46.1061 42.6074 45.9352 43.1543 45.7529C44.043 45.4567 44.7152 45.0124 45.1709 44.4199C45.6494 43.8275 45.9798 43.1325 46.1621 42.335L53.9893 8.42871C54.1032 7.9502 54.1829 7.55143 54.2285 7.23242C54.2741 6.91341 54.2969 6.67415 54.2969 6.51465C54.2969 5.55762 53.807 4.81706 52.8271 4.29297C51.8701 3.74609 50.2979 3.31315 48.1104 2.99414L48.6914 0.499023H74.4629Z" fill="#E6E7EB"/>
</svg>
