<svg xmlns="http://www.w3.org/2000/svg" width="346" height="38" fill="none"><path fill="#1C262F" d="M26.102 12.063h-1.758c-.328-1.235-1.016-2.555-2.063-3.961-1.031-1.407-2.023-2.18-2.976-2.32a21.67 21.67 0 0 0-1.735-.141 47.863 47.863 0 0 0-2.25-.047H9.742v13.36h3.82c1.157 0 2.055-.118 2.696-.352a4.283 4.283 0 0 0 1.64-1.125c.313-.344.594-.875.844-1.594a9.48 9.48 0 0 0 .516-2.344h1.781v13.055h-1.781c-.047-.688-.211-1.469-.492-2.344-.266-.875-.555-1.508-.868-1.898a3.446 3.446 0 0 0-1.78-1.172c-.704-.22-1.555-.328-2.555-.328h-3.82v11.46c0 .516.1.977.304 1.383.203.407.562.735 1.078.985.234.11.742.242 1.523.398.782.156 1.375.242 1.782.258V37H.016v-1.664c.468-.031 1.093-.078 1.875-.14.78-.079 1.289-.173 1.523-.282.469-.203.805-.5 1.008-.89.219-.407.328-.891.328-1.454v-24c0-.515-.086-.968-.258-1.36-.172-.405-.531-.733-1.078-.983-.422-.204-.992-.383-1.71-.54C1 5.532.437 5.438.015 5.407V3.741h26.086v8.32ZM39.297 37H28.023v-1.547c.36-.031.743-.062 1.149-.094.406-.047.742-.109 1.008-.187.437-.14.765-.383.984-.727.219-.36.328-.82.328-1.383V6.297c0-.563-.125-1.086-.375-1.57-.234-.5-.547-.891-.937-1.172-.282-.188-.797-.36-1.547-.516-.75-.156-1.352-.25-1.805-.281v-1.5l8.695-.54.329.352v31.711c0 .547.101 1 .304 1.36.203.343.532.609.985.797.343.156.68.273 1.007.351.344.078.727.133 1.149.164V37Zm24.797-.422c-.735.266-1.383.477-1.946.633-.546.172-1.171.258-1.875.258-1.218 0-2.195-.282-2.93-.844-.718-.578-1.179-1.414-1.382-2.508h-.14c-1.016 1.125-2.11 1.985-3.282 2.578-1.156.594-2.555.89-4.195.89-1.735 0-3.164-.53-4.29-1.593-1.109-1.062-1.663-2.453-1.663-4.172 0-.89.125-1.687.375-2.39a5.716 5.716 0 0 1 1.125-1.899c.39-.468.906-.883 1.547-1.242.64-.375 1.242-.672 1.804-.89.703-.266 2.125-.758 4.266-1.477 2.156-.719 3.61-1.281 4.36-1.688v-2.32c0-.203-.048-.594-.141-1.172a4.719 4.719 0 0 0-.54-1.64 4.502 4.502 0 0 0-1.335-1.5c-.563-.438-1.368-.657-2.414-.657-.72 0-1.391.125-2.016.375-.61.235-1.04.485-1.29.75 0 .313.071.774.212 1.383.156.61.234 1.172.234 1.688 0 .547-.25 1.047-.75 1.5-.484.453-1.164.68-2.039.68-.781 0-1.36-.274-1.734-.821a3.41 3.41 0 0 1-.54-1.875c0-.719.25-1.406.75-2.063.516-.656 1.18-1.242 1.993-1.757.703-.438 1.554-.805 2.554-1.102 1-.312 1.977-.469 2.93-.469 1.313 0 2.453.094 3.422.282a6.193 6.193 0 0 1 2.672 1.148c.797.578 1.398 1.367 1.805 2.367.422.985.632 2.258.632 3.82 0 2.235-.023 4.22-.07 5.954-.047 1.718-.07 3.601-.07 5.648 0 .61.101 1.094.304 1.453.22.36.547.664.985.914.234.14.601.22 1.101.235.516.015 1.04.023 1.57.023v1.5Zm-8.18-12.375c-1.328.39-2.492.774-3.492 1.149s-1.93.843-2.79 1.406c-.78.531-1.398 1.164-1.85 1.898-.454.719-.68 1.578-.68 2.578 0 1.297.336 2.25 1.007 2.86.688.61 1.555.914 2.602.914 1.11 0 2.086-.266 2.93-.797a8.72 8.72 0 0 0 2.132-1.922l.141-8.086ZM89.22 15.32a5.795 5.795 0 0 0-2.016.774c-.625.375-1.164 1.047-1.617 2.015a968.074 968.074 0 0 0-2.86 6.563 976.23 976.23 0 0 0-3.07 7.148c-.312.72-.648 1.57-1.008 2.555-.343.984-.664 1.93-.96 2.836h-1.829a1244.405 1244.405 0 0 0-4.101-10.031c-1.25-3.032-2.547-6.133-3.89-9.305a3.424 3.424 0 0 0-1.524-1.664c-.688-.406-1.383-.664-2.086-.773V13.89h10.687v1.64c-.468.016-1.054.117-1.757.305-.704.172-1.055.414-1.055.726 0 .047.039.172.117.375.078.188.156.407.234.657.641 1.593 1.547 3.82 2.72 6.68a934.308 934.308 0 0 0 2.859 6.913c.562-1.343 1.265-3.015 2.109-5.015.86-2 1.781-4.235 2.766-6.703a69.2 69.2 0 0 1 .445-1.172c.14-.375.21-.75.21-1.125 0-.266-.132-.5-.398-.703a3.488 3.488 0 0 0-.914-.563 5.965 5.965 0 0 0-1.054-.351 11.014 11.014 0 0 0-.844-.164v-1.5h8.836v1.43ZM101.477 37h-11.18v-1.547l1.101-.094c.391-.03.727-.093 1.008-.187.438-.14.758-.383.961-.727.219-.36.328-.82.328-1.383V18.79c0-.5-.117-.953-.351-1.36a2.885 2.885 0 0 0-.938-1.054c-.297-.188-.726-.344-1.289-.469a8.864 8.864 0 0 0-1.547-.258v-1.523l8.157-.516.328.329V32.78c0 .547.101 1 .304 1.36.22.359.555.625 1.008.797.344.14.68.257 1.008.351.328.078.695.133 1.102.164V37ZM98.523 4.492a3.43 3.43 0 0 1-.89 2.344c-.578.656-1.297.984-2.156.984-.797 0-1.493-.312-2.086-.937-.579-.64-.868-1.367-.868-2.18 0-.86.29-1.61.868-2.25.593-.64 1.289-.96 2.086-.96.89 0 1.617.304 2.18.913.577.594.866 1.29.866 2.086Zm26.321 27.07c-.969 1.844-2.266 3.313-3.891 4.407-1.625 1.093-3.492 1.64-5.601 1.64-1.86 0-3.493-.328-4.899-.984-1.391-.656-2.539-1.547-3.445-2.672-.906-1.125-1.586-2.437-2.039-3.937a16.892 16.892 0 0 1-.657-4.758c0-1.5.235-2.969.704-4.406a12.615 12.615 0 0 1 2.109-3.915c.891-1.109 1.992-2 3.305-2.671 1.328-.688 2.812-1.032 4.453-1.032 1.687 0 3.133.266 4.336.797 1.203.531 2.179 1.258 2.929 2.18.719.875 1.25 1.906 1.594 3.094.36 1.187.539 2.476.539 3.867v1.547h-15.304c0 1.515.14 2.89.421 4.125.297 1.234.758 2.32 1.383 3.258a6.631 6.631 0 0 0 2.391 2.156c.984.515 2.156.773 3.516.773 1.39 0 2.585-.32 3.585-.96 1.016-.657 1.993-1.829 2.93-3.516l1.641 1.008Zm-5.18-8.812a18.3 18.3 0 0 0-.234-2.813c-.141-1-.375-1.835-.703-2.507a4.77 4.77 0 0 0-1.477-1.758c-.625-.453-1.43-.68-2.414-.68-1.641 0-3.008.688-4.102 2.063-1.078 1.36-1.664 3.258-1.757 5.695h10.687ZM153.039 37h-11.32v-1.547c.359-.031.75-.062 1.172-.094.437-.03.797-.093 1.078-.187.437-.14.758-.383.961-.727.218-.36.328-.82.328-1.383V21.18c0-1.64-.391-2.907-1.172-3.797-.766-.89-1.703-1.336-2.813-1.336-.828 0-1.585.133-2.273.398a7.72 7.72 0 0 0-1.828.938c-.516.36-.93.75-1.242 1.172-.297.406-.516.734-.657.984v13.29c0 .53.11.968.329 1.312.218.343.546.609.984.797.328.156.68.273 1.055.351.39.078.789.133 1.195.164V37h-11.32v-1.547l1.101-.094a4.295 4.295 0 0 0 1.008-.187c.437-.14.758-.383.961-.727.219-.36.328-.82.328-1.383V18.79c0-.531-.117-1.016-.352-1.453a2.786 2.786 0 0 0-.937-1.102 3.025 3.025 0 0 0-1.055-.398 8.289 8.289 0 0 0-1.312-.188v-1.523l7.687-.516.328.329v3.257h.118c.375-.375.843-.82 1.406-1.336a11.745 11.745 0 0 1 1.594-1.289c.578-.375 1.265-.687 2.062-.937.797-.25 1.695-.375 2.695-.375 2.219 0 3.86.695 4.922 2.086 1.078 1.375 1.618 3.21 1.618 5.508v12.023c0 .547.093.992.281 1.336.187.328.508.586.961.773.375.157.695.266.961.328.281.063.664.11 1.148.141V37Zm39.234-26.766c0-1.546-.492-2.68-1.476-3.398-.969-.719-2.25-1.078-3.844-1.078-.312 0-.68.015-1.101.047-.422.015-.75.03-.985.047l-2.906 12.515h1.57c2.688 0 4.813-.742 6.375-2.226 1.578-1.5 2.367-3.47 2.367-5.907Zm-1.828 15.774c0-1.797-.578-3.172-1.734-4.125-1.156-.969-2.867-1.453-5.133-1.453-.312 0-.703.015-1.172.047a19.88 19.88 0 0 0-.937.046l-2.86 12.375c.016.579.446 1.07 1.289 1.477.844.406 1.782.61 2.813.61 2.078 0 3.883-.837 5.414-2.508 1.547-1.672 2.32-3.829 2.32-6.47Zm-.633-22.266c4.016 0 6.961.5 8.836 1.5 1.891.985 2.836 2.5 2.836 4.547 0 1.36-.304 2.555-.914 3.586a8.17 8.17 0 0 1-2.367 2.602c-.984.718-2.125 1.32-3.422 1.804a25.948 25.948 0 0 1-3.984 1.149l-.094.445c1.078.11 2.172.344 3.281.703 1.125.344 2.086.79 2.883 1.336a6.71 6.71 0 0 1 2.039 2.11c.5.828.75 1.835.75 3.023 0 3.422-1.437 6.023-4.312 7.805-2.86 1.765-7.086 2.648-12.68 2.648h-18.187l.398-1.71c.391-.017.969-.071 1.734-.165.782-.11 1.36-.227 1.735-.352.609-.203 1.07-.507 1.383-.914.328-.406.554-.882.679-1.43l5.367-23.25c.079-.327.133-.6.165-.82.031-.218.046-.382.046-.492 0-.656-.336-1.164-1.007-1.523-.657-.375-1.735-.672-3.235-.89l.399-1.712h17.671Zm41.368 19.219a14.52 14.52 0 0 1-1.125 5.648 13.873 13.873 0 0 1-3.188 4.688c-1.484 1.422-3.226 2.523-5.226 3.305-1.985.765-4.219 1.148-6.703 1.148-3.329 0-6.016-.883-8.063-2.648-2.047-1.782-3.07-4.204-3.07-7.266 0-2.078.383-4.008 1.148-5.79a14.346 14.346 0 0 1 3.258-4.663c1.375-1.297 3.062-2.32 5.062-3.07 2-.766 4.165-1.149 6.493-1.149 3.531 0 6.312.867 8.343 2.602 2.047 1.718 3.071 4.117 3.071 7.195Zm-8.25-2.648c0-1.829-.313-3.172-.938-4.032-.609-.86-1.5-1.289-2.672-1.289-1.203 0-2.304.485-3.304 1.453-1 .953-1.813 2.36-2.438 4.22-.547 1.546-.937 3.226-1.172 5.038-.234 1.797-.351 3.406-.351 4.828 0 1.89.312 3.266.937 4.125.625.844 1.531 1.266 2.719 1.266 1.281 0 2.391-.524 3.328-1.57.938-1.047 1.68-2.336 2.227-3.868.546-1.5.961-3.156 1.242-4.968.281-1.828.422-3.563.422-5.203Zm42.258 13.101-.516 2.11c-1.547.609-2.781 1.078-3.703 1.406-.922.312-1.992.468-3.211.468-1.86 0-3.305-.46-4.336-1.382-1.031-.938-1.547-2.094-1.547-3.47 0-.374.016-.85.047-1.429.047-.594.18-1.328.398-2.203l1.688-6.234a17.8 17.8 0 0 0 .375-1.805c.094-.547.14-.992.14-1.336 0-.75-.179-1.336-.539-1.758-.359-.422-.968-.633-1.828-.633-.531 0-1.289.211-2.273.633-.985.407-2.086 1.172-3.305 2.297L242.711 37h-7.758l3.328-14.414c.094-.438.211-1.008.352-1.711.156-.703.234-1.29.234-1.758 0-.89-.187-1.5-.562-1.828-.36-.344-1.024-.516-1.993-.516-.5 0-1.015.079-1.546.235a22.15 22.15 0 0 0-1.336.445l.515-2.11a45.352 45.352 0 0 1 3.633-1.312c1.156-.375 2.25-.562 3.281-.562 1.844 0 3.219.367 4.125 1.101.922.72 1.532 1.735 1.828 3.047h.165c1.531-1.39 3.109-2.469 4.734-3.234a12.008 12.008 0 0 1 5.227-1.172c1.734 0 3.085.476 4.054 1.43.985.953 1.477 2.109 1.477 3.468 0 .36-.031.868-.094 1.524-.047.64-.172 1.328-.375 2.062l-1.781 6.586a18.745 18.745 0 0 0-.422 1.875c-.125.703-.188 1.235-.188 1.594 0 .906.196 1.523.586 1.852.407.328 1.11.492 2.11.492.468 0 1-.078 1.593-.235.594-.172 1.024-.32 1.29-.445Zm29.039-14.367c0 2.203-.375 4.437-1.125 6.703-.735 2.266-1.774 4.273-3.118 6.023-1.593 2.047-3.359 3.555-5.296 4.524-1.938.969-3.954 1.453-6.047 1.453-2.782 0-4.993-.648-6.633-1.945-1.641-1.297-2.461-3.157-2.461-5.578 0-.75.125-1.555.375-2.415.25-.859.562-1.867.937-3.023a85 85 0 0 0 .868-2.906c.281-.969.421-1.883.421-2.742 0-.844-.187-1.446-.562-1.805-.375-.36-1.047-.54-2.016-.54-.5 0-1.015.079-1.547.235a22.02 22.02 0 0 0-1.335.446l.515-2.11a45.388 45.388 0 0 1 3.633-1.312c1.156-.375 2.25-.563 3.281-.563 1.86 0 3.289.469 4.289 1.406 1.016.922 1.524 2.07 1.524 3.446 0 1.015-.141 2.093-.422 3.234a36.637 36.637 0 0 1-.844 3.07c-.266.813-.547 1.75-.844 2.813-.281 1.047-.422 1.883-.422 2.508 0 1.328.321 2.39.961 3.187.641.797 1.672 1.196 3.094 1.196 2.125 0 3.969-.79 5.531-2.368 1.563-1.593 2.344-3.734 2.344-6.422a7.881 7.881 0 0 0-.234-1.922c-.172-.359-.508-.742-1.008-1.148-.5-.406-.922-.781-1.266-1.125a7.34 7.34 0 0 1-1.195-1.594c-.344-.625-.516-1.43-.516-2.414 0-.828.157-1.5.469-2.015a4.564 4.564 0 0 1 1.172-1.266 4.6 4.6 0 0 1 1.336-.633 5.255 5.255 0 0 1 1.476-.234c1.454 0 2.594.523 3.422 1.57.828 1.031 1.243 2.453 1.243 4.266Zm17.765 14.601-.515 2.11a86.006 86.006 0 0 1-3.704 1.383c-.921.328-1.992.492-3.211.492-1.874 0-3.335-.453-4.382-1.36-1.032-.921-1.547-2.086-1.547-3.492 0-.547.039-1.101.117-1.664a19.86 19.86 0 0 1 .375-1.945l1.922-6.844c.172-.656.312-1.273.422-1.851a7.911 7.911 0 0 0 .187-1.618c0-.875-.179-1.484-.539-1.828-.359-.343-1.047-.515-2.062-.515-.5 0-1.016.078-1.547.234-.516.156-.961.305-1.336.445l.516-2.11a45.232 45.232 0 0 1 3.632-1.312c1.157-.375 2.25-.562 3.282-.562 1.859 0 3.289.453 4.289 1.36 1.015.89 1.523 2.054 1.523 3.492 0 .296-.039.82-.117 1.57-.063.75-.188 1.437-.375 2.062L307 28.515a19.027 19.027 0 0 0-.422 1.876c-.125.703-.187 1.234-.187 1.593 0 .907.203 1.524.609 1.852.406.328 1.109.492 2.109.492.469 0 1-.078 1.594-.234.594-.172 1.024-.32 1.289-.446Zm.492-28.617c0 1.188-.453 2.203-1.359 3.047-.891.828-1.969 1.242-3.234 1.242-1.266 0-2.352-.414-3.258-1.242-.906-.844-1.36-1.86-1.36-3.047s.454-2.203 1.36-3.047c.906-.843 1.992-1.265 3.258-1.265 1.265 0 2.343.422 3.234 1.265.906.844 1.359 1.86 1.359 3.047Zm32.813 28.383-.516 2.11c-1.547.609-2.781 1.078-3.703 1.406-.922.312-1.992.468-3.211.468-1.859 0-3.305-.46-4.336-1.382-1.031-.938-1.547-2.094-1.547-3.47 0-.374.016-.85.047-1.429.047-.594.18-1.328.399-2.203l1.687-6.234a17.8 17.8 0 0 0 .375-1.805c.094-.547.141-.992.141-1.336 0-.75-.18-1.336-.539-1.758-.36-.422-.969-.633-1.828-.633-.532 0-1.289.211-2.274.633-.984.407-2.086 1.172-3.304 2.297L322.82 37h-7.758l3.329-14.414c.093-.438.211-1.008.351-1.711.156-.703.235-1.29.235-1.758 0-.89-.188-1.5-.563-1.828-.359-.344-1.023-.516-1.992-.516-.5 0-1.016.079-1.547.235a22.15 22.15 0 0 0-1.336.445l.516-2.11a45.074 45.074 0 0 1 3.633-1.312c1.156-.375 2.25-.562 3.281-.562 1.843 0 3.219.367 4.125 1.101.922.72 1.531 1.735 1.828 3.047h.164c1.531-1.39 3.109-2.469 4.734-3.234a12.008 12.008 0 0 1 5.227-1.172c1.734 0 3.086.476 4.055 1.43.984.953 1.476 2.109 1.476 3.468 0 .36-.031.868-.094 1.524-.046.64-.172 1.328-.375 2.062l-1.781 6.586a19.027 19.027 0 0 0-.422 1.875c-.125.703-.187 1.235-.187 1.594 0 .906.195 1.523.586 1.852.406.328 1.109.492 2.109.492.469 0 1-.078 1.594-.235.594-.172 1.023-.32 1.289-.445Z"/></svg>