<svg width="128" height="128" viewBox="0 0 128 128" fill="none" xmlns="http://www.w3.org/2000/svg">
<rect width="128" height="128" rx="64" fill="#161616"/>
<path d="M29.5257 87V83.99L36.3157 82.59L35.5457 83.57V41.5L36.5257 42.76L29.5257 41.5V38.49L41.2157 38.14H63.4057L63.4757 49.27H59.9757L58.7157 41.64L59.9057 42.41H40.2357L41.2857 41.36V61.45L40.2357 60.47H58.2257V64.74H40.2357L41.2857 63.76V83.57L40.4457 82.59L48.8457 83.99V87H29.5257ZM84.6474 62.43L84.9974 61.66C89.1974 61.7067 92.3241 62.57 94.3774 64.25C96.4774 65.93 97.5274 68.4733 97.5274 71.88C97.5274 75.0067 96.7341 77.7133 95.1474 80C93.6074 82.24 91.4141 83.9667 88.5674 85.18C85.7674 86.3933 82.4308 87 78.5574 87H59.3774L59.7974 83.99L66.5874 82.59L65.6074 83.57L72.2574 41.71L72.9574 42.76L66.5174 41.5L67.0074 38.49L78.2074 38.14H86.2574C87.7041 38.14 89.0808 38.2567 90.3874 38.49C91.6941 38.6767 92.8841 39.0267 93.9574 39.54C95.0774 40.0067 96.0341 40.6367 96.8274 41.43C97.6674 42.1767 98.2974 43.1333 98.7174 44.3C99.1841 45.4667 99.4174 46.82 99.4174 48.36C99.4174 51.02 98.7874 53.3533 97.5274 55.36C96.3141 57.32 94.5874 58.9067 92.3474 60.12C90.1541 61.3333 87.5874 62.1033 84.6474 62.43ZM84.7874 42.34H76.5974L77.8574 41.36L74.7774 61.17L74.0074 59.98H80.2374C82.0574 59.98 83.7841 59.77 85.4174 59.35C87.0508 58.93 88.4741 58.3 89.6874 57.46C90.9474 56.5733 91.9274 55.4767 92.6274 54.17C93.3741 52.8167 93.7474 51.2533 93.7474 49.48C93.7474 47.8 93.4208 46.4467 92.7674 45.42C92.1141 44.3933 91.1341 43.6233 89.8274 43.11C88.5208 42.5967 86.8408 42.34 84.7874 42.34ZM78.4874 82.73C82.6874 82.73 85.9308 81.75 88.2174 79.79C90.5508 77.83 91.7174 75.17 91.7174 71.81C91.7174 70.0833 91.3674 68.66 90.6674 67.54C90.0141 66.42 89.0341 65.58 87.7274 65.02C86.4208 64.4133 84.8341 64.11 82.9674 64.11H73.2374L74.4974 62.71L71.1374 83.85L70.0174 82.73H78.4874Z" fill="#D9D9D9"/>
</svg>
