<svg width="128" height="128" viewBox="0 0 128 128" fill="none" xmlns="http://www.w3.org/2000/svg">
<rect width="128" height="128" rx="64" fill="#262626"/>
<path d="M41.6133 67.4238V85.2656L49.2354 86.1885V88H29.582V86.1885L35.0166 85.2656V44.8652L29.1377 43.9766V42.165H63.5225V53.1367H61.2666L60.1729 45.7197C57.6208 45.4007 53.9294 45.2412 49.0986 45.2412H41.6133V64.3477H55.1143L56.1738 58.8789H58.2588V72.9609H56.1738L55.1143 67.4238H41.6133ZM80.9268 62.2285C85.3473 62.2285 88.4919 61.488 90.3604 60.0068C92.2516 58.5257 93.1973 55.9281 93.1973 52.2139C93.1973 49.8441 92.4567 48.0895 90.9756 46.9502C89.4945 45.8109 87.0563 45.2412 83.6611 45.2412H78.2607L75.2529 62.2285H80.9268ZM80.1064 85.1289C84.4814 85.1289 87.6943 84.2858 89.7451 82.5996C91.7959 80.8906 92.8213 78.0651 92.8213 74.123C92.8213 71.0241 91.8073 68.7796 89.7793 67.3896C87.7741 65.9997 84.8688 65.3047 81.0635 65.3047H74.7061L71.2881 84.9238C74.7744 85.0605 77.7139 85.1289 80.1064 85.1289ZM59.7354 88L60.0771 86.1885L64.623 85.2656L71.7666 44.8652L66.0244 43.9766L66.3662 42.165H85.1992C95.2708 42.165 100.307 45.3779 100.307 51.8037C100.307 55.0166 99.2926 57.6712 97.2646 59.7676C95.2594 61.8639 92.4567 63.1514 88.8564 63.6299C92.3883 63.9261 95.1227 64.9857 97.0596 66.8086C98.9964 68.6087 99.9648 71.0013 99.9648 73.9863C99.9648 78.8854 98.3014 82.4857 94.9746 84.7871C91.6706 87.0658 86.7145 88.2051 80.1064 88.2051L67.0156 88H59.7354Z" fill="#F1F1F1"/>
</svg>
