<svg xmlns="http://www.w3.org/2000/svg" width="128" height="128" fill="none"><rect width="128" height="128" fill="#1C262F" rx="64"/><path fill="#E6E7EB" d="M58.981 51.633h-2.563c-.478-1.8-1.481-3.726-3.008-5.777-1.504-2.05-2.95-3.178-4.34-3.383-.707-.091-1.55-.16-2.53-.205a69.738 69.738 0 0 0-3.281-.069h-8.135v19.483h5.571c1.687 0 2.997-.171 3.931-.513a6.246 6.246 0 0 0 2.393-1.64c.455-.502.865-1.277 1.23-2.325.387-1.07.638-2.21.752-3.418h2.598v19.038H49c-.068-1.002-.308-2.142-.718-3.418-.387-1.276-.809-2.199-1.264-2.768a5.027 5.027 0 0 0-2.598-1.71c-1.026-.318-2.267-.478-3.726-.478h-5.571v16.714c0 .752.148 1.424.444 2.017.297.592.82 1.07 1.573 1.435.341.16 1.082.353 2.221.581 1.14.228 2.005.353 2.598.376V88H20.94v-2.427c.683-.045 1.595-.114 2.734-.205 1.14-.114 1.88-.25 2.221-.41.684-.296 1.174-.73 1.47-1.299.32-.592.479-1.299.479-2.119v-35c0-.752-.126-1.413-.376-1.982-.25-.593-.775-1.071-1.573-1.436-.615-.296-1.446-.558-2.495-.786-1.025-.228-1.845-.365-2.46-.41v-2.427H58.98v12.134Zm39.649-2.666c0-2.256-.718-3.908-2.153-4.956-1.413-1.048-3.282-1.573-5.606-1.573-.456 0-.991.023-1.606.069-.616.023-1.094.045-1.436.068l-4.238 18.252h2.29c3.92 0 7.018-1.082 9.297-3.247 2.301-2.187 3.452-5.058 3.452-8.613ZM95.964 71.97c0-2.62-.843-4.626-2.53-6.016-1.686-1.413-4.18-2.119-7.485-2.119-.456 0-1.025.023-1.709.068-.66.023-1.116.046-1.367.069l-4.17 18.047c.023.843.65 1.56 1.88 2.153 1.23.592 2.598.889 4.102.889 3.03 0 5.662-1.22 7.895-3.658 2.256-2.438 3.384-5.582 3.384-9.433Zm-.923-32.471c5.856 0 10.151.73 12.886 2.188 2.757 1.435 4.135 3.645 4.135 6.63 0 1.983-.444 3.726-1.333 5.23a11.921 11.921 0 0 1-3.452 3.794c-1.435 1.048-3.099 1.925-4.99 2.632a37.851 37.851 0 0 1-5.81 1.675l-.137.649c1.572.16 3.167.501 4.785 1.025 1.641.502 3.042 1.151 4.204 1.948 1.253.844 2.245 1.869 2.974 3.077.729 1.207 1.093 2.677 1.093 4.409 0 4.99-2.096 8.784-6.289 11.382C98.937 86.713 92.774 88 84.617 88H58.092l.58-2.495c.57-.023 1.414-.103 2.53-.24 1.14-.159 1.982-.33 2.53-.512.888-.296 1.56-.74 2.016-1.333a5.06 5.06 0 0 0 .991-2.085l7.827-33.906c.114-.479.194-.878.24-1.197.045-.319.068-.558.068-.717 0-.957-.49-1.698-1.47-2.222-.957-.547-2.529-.98-4.716-1.299l.58-2.495h25.772Z"/></svg>