<?xml version="1.0" standalone="no"?>
<!DOCTYPE svg PUBLIC "-//W3C//DTD SVG 20010904//EN"
 "http://www.w3.org/TR/2001/REC-SVG-20010904/DTD/svg10.dtd">
<svg version="1.0" xmlns="http://www.w3.org/2000/svg"
 width="700.000000pt" height="700.000000pt" viewBox="0 0 700.000000 700.000000"
 preserveAspectRatio="xMidYMid meet">
<metadata>
Created by potrace 1.14, written by Peter Selinger 2001-2017
</metadata>
<g transform="translate(0.000000,700.000000) scale(0.100000,-0.100000)"
fill="#000000" stroke="none">
<path d="M1770 4900 l-155 -5 -3 -82 c-2 -46 -1 -83 1 -83 6 0 279 -50 305
-55 l22 -5 0 -1098 0 -1098 -142 -29 c-204 -41 -188 -30 -188 -125 l0 -80 530
0 530 0 0 84 0 84 -67 12 c-38 6 -129 21 -203 33 l-135 23 -3 492 -2 492 465
0 465 0 0 115 0 115 -465 0 -465 0 0 495 0 495 478 0 479 0 27 -167 c15 -93
30 -178 33 -190 5 -22 10 -23 99 -23 l94 0 0 305 0 305 -772 -2 c-425 -1 -843
-5 -928 -8z"/>
<path d="M3815 4901 l-150 -6 -14 -79 c-10 -60 -11 -80 -2 -86 7 -4 70 -17
141 -30 71 -13 134 -26 140 -30 9 -5 -36 -306 -162 -1101 l-174 -1094 -54 -11
c-30 -7 -103 -22 -162 -34 -120 -25 -110 -15 -124 -133 l-6 -58 628 4 c658 5
679 6 838 52 224 65 414 201 515 369 18 31 47 95 64 143 30 84 32 95 32 248 0
142 -3 168 -23 228 -58 168 -196 276 -409 320 -51 11 -63 17 -48 22 11 4 53
20 93 35 185 71 346 209 421 361 58 118 74 192 75 329 1 285 -130 451 -420
532 -76 21 -96 22 -564 23 -267 1 -552 -1 -635 -4z m1028 -240 c91 -24 126
-41 178 -88 82 -74 119 -206 99 -349 -26 -191 -129 -330 -304 -413 -149 -70
-271 -91 -544 -91 l-174 0 6 28 c3 15 35 218 71 452 36 234 68 437 71 453 l6
27 257 0 c223 0 268 -3 334 -19z m-148 -1185 c142 -34 231 -100 281 -209 24
-53 29 -78 32 -171 7 -193 -33 -303 -157 -427 -85 -85 -157 -126 -286 -161
-72 -19 -110 -22 -373 -26 l-293 -4 6 24 c5 24 155 971 155 982 0 3 129 6 288
6 212 0 303 -4 347 -14z"/>
</g>
</svg>
