<?xml version="1.0" standalone="no"?>
<!DOCTYPE svg PUBLIC "-//W3C//DTD SVG 20010904//EN"
 "http://www.w3.org/TR/2001/REC-SVG-20010904/DTD/svg10.dtd">
<svg version="1.0" xmlns="http://www.w3.org/2000/svg"
 width="512.000000pt" height="512.000000pt" viewBox="0 0 512.000000 512.000000"
 preserveAspectRatio="xMidYMid meet">
<metadata>
Created by potrace 1.14, written by Peter Selinger 2001-2017
</metadata>
<g transform="translate(0.000000,512.000000) scale(0.100000,-0.100000)"
fill="#000000" stroke="none">
<path d="M2320 5110 c-491 -47 -981 -247 -1365 -557 -129 -104 -340 -321 -433
-445 -274 -365 -443 -782 -504 -1238 -16 -123 -16 -509 0 -625 65 -459 233
-873 501 -1230 92 -122 304 -341 426 -440 368 -299 822 -493 1305 -557 123
-16 509 -16 625 0 459 65 873 233 1230 501 122 92 341 304 440 426 299 368
493 822 557 1305 16 123 16 509 0 625 -65 459 -233 873 -501 1230 -92 122
-304 341 -426 440 -365 297 -826 494 -1295 555 -115 15 -443 21 -560 10z m220
-1740 l0 -220 -69 0 c-80 0 -70 -16 -97 158 l-18 112 -353 0 -353 0 0 -360 0
-360 340 0 340 0 0 -85 0 -85 -340 0 -340 0 0 -359 0 -359 28 -6 c15 -3 70
-12 122 -21 166 -27 150 -18 150 -86 l0 -59 -385 0 -385 0 0 60 c0 33 2 60 5
60 8 0 197 40 218 46 16 5 17 52 17 809 l0 803 -92 16 c-166 30 -148 19 -148
86 l0 59 93 4 c50 1 356 4 680 5 l587 2 0 -220z m1093 206 c143 -28 254 -101
301 -200 94 -198 23 -469 -157 -605 -53 -40 -193 -111 -220 -111 -40 0 -19
-16 42 -31 203 -52 301 -178 301 -389 0 -250 -142 -443 -393 -538 -146 -55
-229 -62 -706 -62 l-423 0 7 58 c4 31 8 58 9 59 1 1 52 13 114 26 62 14 115
27 118 30 6 6 254 1550 254 1583 0 19 -12 23 -107 42 -58 12 -107 23 -109 24
-1 2 2 29 8 60 l10 57 86 4 c48 1 245 4 439 5 271 2 368 -1 426 -12z"/>
<path d="M3105 3409 c-6 -29 -105 -667 -105 -681 0 -17 343 -4 415 16 144 40
244 115 297 224 30 62 33 75 33 167 0 85 -4 107 -24 148 -28 57 -69 91 -147
119 -50 18 -88 22 -261 26 l-202 4 -6 -23z"/>
<path d="M2970 2556 c0 -5 -108 -685 -115 -720 l-5 -28 223 5 c235 4 277 12
377 62 146 74 231 234 217 406 -7 82 -24 125 -71 177 -43 47 -107 77 -197 91
-58 10 -429 16 -429 7z"/>
</g>
</svg>
